<svg width="20" height="20" viewBox="0 0 20 20" fill="none" xmlns="http://www.w3.org/2000/svg">
<path fill-rule="evenodd" clip-rule="evenodd" d="M9.21842 0.856573V13.1542L1.43425 5.79795C1.0812 5.48207 0.540241 5.50768 0.221358 5.86056C-0.0861369 6.20205 -0.0719011 6.72282 0.255524 7.04439L9.48605 15.7666C9.52591 15.8036 9.57716 15.8236 9.62272 15.8549C9.66543 15.8833 9.70529 15.9175 9.75369 15.9374C9.85619 15.9772 9.96438 16 10.0754 16H10.0811C10.1893 15.9972 10.2947 15.9744 10.3971 15.9345C10.4484 15.9146 10.4883 15.8805 10.531 15.8492C10.5737 15.8207 10.6249 15.8036 10.6648 15.7666L19.7302 7.20091C20.0747 6.87649 20.0918 6.3358 19.7672 5.99146C19.7672 5.99146 19.7672 5.98862 19.7643 5.98862C19.4398 5.64428 18.896 5.63005 18.5514 5.95447L10.9324 13.1542V0.856573C10.9324 0.384176 10.548 0 10.0726 0C9.59994 0 9.21557 0.384176 9.21842 0.856573Z" fill="white"/>
<path d="M0.750001 20C0.335787 20 1.81058e-08 19.6642 0 19.25C-1.81058e-08 18.8358 0.335786 18.5 0.75 18.5H19.25C19.6642 18.5 20 18.8358 20 19.25C20 19.6642 19.6642 20 19.25 20H0.750001Z" fill="white"/>
</svg>
